<?xml version="1.0" standalone="no"?>
<!DOCTYPE svg PUBLIC "-//W3C//DTD SVG 20010904//EN"
 "http://www.w3.org/TR/2001/REC-SVG-20010904/DTD/svg10.dtd">
<svg version="1.0" xmlns="http://www.w3.org/2000/svg"
 width="512.000000pt" height="512.000000pt" viewBox="0 0 512.000000 512.000000"
 preserveAspectRatio="xMidYMid meet">
<g transform="translate(0.000000,512.000000) scale(0.100000,-0.100000)"
fill="#000000" stroke="none">
<path d="M0 2560 l0 -2560 1277 0 1278 0 -443 443 c-243 243 -442 448 -442
454 0 32 114 323 218 558 129 291 181 420 222 545 73 221 118 406 159 650 12
69 24 137 27 152 l5 28 -194 2 -195 3 320 330 c176 182 324 330 328 330 3 0
149 -148 322 -330 l316 -330 -184 -3 -185 -2 5 -33 c76 -471 162 -774 338
-1191 141 -336 198 -478 239 -596 l40 -114 -448 -448 -448 -448 1283 0 1282 0
0 1277 0 1278 -463 -463 -462 -462 -258 258 -257 257 208 208 207 207 -768
768 -767 767 -767 -767 -768 -768 208 -208 207 -207 -258 -258 -257 -257 -458
458 c-251 252 -457 464 -457 470 0 9 1297 1315 2539 2557 2 3 -570 5 -1272 5
l-1277 0 0 -2560z"/>
<path d="M3835 3840 c704 -704 1281 -1280 1282 -1280 2 0 3 576 3 1280 l0
1280 -1282 0 -1283 0 1280 -1280z"/>
</g>
</svg>
